<mxfile host="app.diagrams.net" modified="2021-06-25T14:51:12.235Z" agent="5.0 (X11; Linux x86_64) AppleWebKit/537.36 (KHTML, like Gecko) Chrome/91.0.4472.114 Safari/537.36" etag="aY_ywp30lJvHdzLDh3MS" version="14.8.1" type="gitlab">
  <diagram id="C5RBs43oDa-KdzZeNtuy" name="Page-1">
    <mxGraphModel dx="970" dy="533" grid="1" gridSize="10" guides="1" tooltips="1" connect="1" arrows="1" fold="1" page="1" pageScale="1" pageWidth="827" pageHeight="1169" math="0" shadow="0">
      <root>
        <mxCell id="WIyWlLk6GJQsqaUBKTNV-0" />
        <mxCell id="WIyWlLk6GJQsqaUBKTNV-1" parent="WIyWlLk6GJQsqaUBKTNV-0" />
        <mxCell id="Ygb72FsRFXbxfKDX70QJ-8" value="" style="edgeStyle=orthogonalEdgeStyle;rounded=0;orthogonalLoop=1;jettySize=auto;html=1;fontColor=#000000;verticalAlign=middle;" edge="1" parent="WIyWlLk6GJQsqaUBKTNV-1" source="WIyWlLk6GJQsqaUBKTNV-6">
          <mxGeometry relative="1" as="geometry">
            <mxPoint x="130" y="210" as="targetPoint" />
          </mxGeometry>
        </mxCell>
        <mxCell id="Ygb72FsRFXbxfKDX70QJ-13" value="" style="edgeStyle=orthogonalEdgeStyle;rounded=0;orthogonalLoop=1;jettySize=auto;html=1;fontColor=#000000;verticalAlign=middle;" edge="1" parent="WIyWlLk6GJQsqaUBKTNV-1" source="WIyWlLk6GJQsqaUBKTNV-6">
          <mxGeometry relative="1" as="geometry">
            <mxPoint x="320" y="210" as="targetPoint" />
          </mxGeometry>
        </mxCell>
        <mxCell id="Ygb72FsRFXbxfKDX70QJ-20" value="" style="edgeStyle=orthogonalEdgeStyle;rounded=0;orthogonalLoop=1;jettySize=auto;html=1;fontColor=#000000;verticalAlign=middle;" edge="1" parent="WIyWlLk6GJQsqaUBKTNV-1" source="WIyWlLk6GJQsqaUBKTNV-6" target="Ygb72FsRFXbxfKDX70QJ-19">
          <mxGeometry relative="1" as="geometry" />
        </mxCell>
        <mxCell id="WIyWlLk6GJQsqaUBKTNV-6" value="1-Login&lt;br&gt;2-Register&lt;br&gt;3-Quit" style="rhombus;whiteSpace=wrap;html=1;shadow=0;fontFamily=Helvetica;fontSize=12;align=center;strokeWidth=1;spacing=6;spacingTop=-4;" parent="WIyWlLk6GJQsqaUBKTNV-1" vertex="1">
          <mxGeometry x="170" y="170" width="100" height="80" as="geometry" />
        </mxCell>
        <mxCell id="Ygb72FsRFXbxfKDX70QJ-9" value="3" style="text;html=1;resizable=0;autosize=1;align=center;verticalAlign=middle;points=[];fillColor=none;strokeColor=none;rounded=0;fontColor=#000000;" vertex="1" parent="WIyWlLk6GJQsqaUBKTNV-1">
          <mxGeometry x="140" y="190" width="20" height="20" as="geometry" />
        </mxCell>
        <mxCell id="Ygb72FsRFXbxfKDX70QJ-15" value="1" style="text;html=1;strokeColor=none;fillColor=none;align=center;verticalAlign=middle;whiteSpace=wrap;rounded=0;fontColor=#000000;" vertex="1" parent="WIyWlLk6GJQsqaUBKTNV-1">
          <mxGeometry x="270" y="190" width="40" height="20" as="geometry" />
        </mxCell>
        <mxCell id="Ygb72FsRFXbxfKDX70QJ-18" value="" style="edgeStyle=orthogonalEdgeStyle;rounded=0;orthogonalLoop=1;jettySize=auto;html=1;fontColor=#000000;verticalAlign=middle;" edge="1" parent="WIyWlLk6GJQsqaUBKTNV-1" source="Ygb72FsRFXbxfKDX70QJ-16" target="Ygb72FsRFXbxfKDX70QJ-17">
          <mxGeometry relative="1" as="geometry" />
        </mxCell>
        <mxCell id="Ygb72FsRFXbxfKDX70QJ-16" value="Input username&lt;br&gt;and password" style="shape=parallelogram;perimeter=parallelogramPerimeter;whiteSpace=wrap;html=1;fixedSize=1;fontColor=#000000;" vertex="1" parent="WIyWlLk6GJQsqaUBKTNV-1">
          <mxGeometry x="310" y="180" width="120" height="60" as="geometry" />
        </mxCell>
        <mxCell id="Ygb72FsRFXbxfKDX70QJ-24" value="" style="edgeStyle=orthogonalEdgeStyle;rounded=0;orthogonalLoop=1;jettySize=auto;html=1;fontColor=#000000;verticalAlign=middle;" edge="1" parent="WIyWlLk6GJQsqaUBKTNV-1" source="Ygb72FsRFXbxfKDX70QJ-17" target="Ygb72FsRFXbxfKDX70QJ-23">
          <mxGeometry relative="1" as="geometry" />
        </mxCell>
        <mxCell id="Ygb72FsRFXbxfKDX70QJ-34" value="" style="edgeStyle=orthogonalEdgeStyle;rounded=0;orthogonalLoop=1;jettySize=auto;html=1;fontColor=#000000;verticalAlign=middle;" edge="1" parent="WIyWlLk6GJQsqaUBKTNV-1" source="Ygb72FsRFXbxfKDX70QJ-17">
          <mxGeometry relative="1" as="geometry">
            <mxPoint x="525" y="310" as="targetPoint" />
          </mxGeometry>
        </mxCell>
        <mxCell id="Ygb72FsRFXbxfKDX70QJ-17" value="Username&lt;br&gt;and password match?" style="rhombus;whiteSpace=wrap;html=1;fontColor=#000000;" vertex="1" parent="WIyWlLk6GJQsqaUBKTNV-1">
          <mxGeometry x="470" y="160" width="110" height="100" as="geometry" />
        </mxCell>
        <mxCell id="Ygb72FsRFXbxfKDX70QJ-41" value="" style="edgeStyle=orthogonalEdgeStyle;rounded=0;orthogonalLoop=1;jettySize=auto;html=1;fontColor=#000000;verticalAlign=middle;" edge="1" parent="WIyWlLk6GJQsqaUBKTNV-1" source="Ygb72FsRFXbxfKDX70QJ-19" target="Ygb72FsRFXbxfKDX70QJ-40">
          <mxGeometry relative="1" as="geometry" />
        </mxCell>
        <mxCell id="Ygb72FsRFXbxfKDX70QJ-19" value="Input Username,&lt;br&gt;password and&lt;br&gt;&amp;nbsp;location" style="shape=parallelogram;perimeter=parallelogramPerimeter;whiteSpace=wrap;html=1;fixedSize=1;shadow=0;strokeWidth=1;spacing=6;spacingTop=-4;" vertex="1" parent="WIyWlLk6GJQsqaUBKTNV-1">
          <mxGeometry x="155" y="290" width="130" height="60" as="geometry" />
        </mxCell>
        <mxCell id="Ygb72FsRFXbxfKDX70QJ-26" value="" style="edgeStyle=orthogonalEdgeStyle;rounded=0;orthogonalLoop=1;jettySize=auto;html=1;fontColor=#000000;verticalAlign=middle;" edge="1" parent="WIyWlLk6GJQsqaUBKTNV-1" source="Ygb72FsRFXbxfKDX70QJ-23" target="Ygb72FsRFXbxfKDX70QJ-25">
          <mxGeometry relative="1" as="geometry" />
        </mxCell>
        <mxCell id="Ygb72FsRFXbxfKDX70QJ-23" value="" style="shape=waypoint;size=6;pointerEvents=1;points=[];fillColor=#ffffff;resizable=0;rotatable=0;perimeter=centerPerimeter;snapToPoint=1;" vertex="1" parent="WIyWlLk6GJQsqaUBKTNV-1">
          <mxGeometry x="630" y="190" width="40" height="40" as="geometry" />
        </mxCell>
        <mxCell id="Ygb72FsRFXbxfKDX70QJ-28" value="" style="edgeStyle=orthogonalEdgeStyle;rounded=0;orthogonalLoop=1;jettySize=auto;html=1;fontColor=#000000;verticalAlign=middle;" edge="1" parent="WIyWlLk6GJQsqaUBKTNV-1" source="Ygb72FsRFXbxfKDX70QJ-25" target="Ygb72FsRFXbxfKDX70QJ-27">
          <mxGeometry relative="1" as="geometry">
            <Array as="points">
              <mxPoint x="650" y="150" />
              <mxPoint x="370" y="150" />
            </Array>
          </mxGeometry>
        </mxCell>
        <mxCell id="Ygb72FsRFXbxfKDX70QJ-25" value="" style="shape=waypoint;size=6;pointerEvents=1;points=[];fillColor=#ffffff;resizable=0;rotatable=0;perimeter=centerPerimeter;snapToPoint=1;" vertex="1" parent="WIyWlLk6GJQsqaUBKTNV-1">
          <mxGeometry x="630" y="130" width="40" height="40" as="geometry" />
        </mxCell>
        <mxCell id="Ygb72FsRFXbxfKDX70QJ-29" value="" style="edgeStyle=orthogonalEdgeStyle;rounded=0;orthogonalLoop=1;jettySize=auto;html=1;fontColor=#000000;verticalAlign=middle;" edge="1" parent="WIyWlLk6GJQsqaUBKTNV-1" source="Ygb72FsRFXbxfKDX70QJ-27" target="Ygb72FsRFXbxfKDX70QJ-16">
          <mxGeometry relative="1" as="geometry" />
        </mxCell>
        <mxCell id="Ygb72FsRFXbxfKDX70QJ-27" value="" style="shape=waypoint;size=6;pointerEvents=1;points=[];fillColor=#ffffff;resizable=0;rotatable=0;perimeter=centerPerimeter;snapToPoint=1;" vertex="1" parent="WIyWlLk6GJQsqaUBKTNV-1">
          <mxGeometry x="350" y="130" width="40" height="40" as="geometry" />
        </mxCell>
        <mxCell id="Ygb72FsRFXbxfKDX70QJ-30" value="No" style="text;html=1;strokeColor=none;fillColor=none;align=center;verticalAlign=middle;whiteSpace=wrap;rounded=0;fontColor=#000000;" vertex="1" parent="WIyWlLk6GJQsqaUBKTNV-1">
          <mxGeometry x="590" y="190" width="40" height="20" as="geometry" />
        </mxCell>
        <mxCell id="Ygb72FsRFXbxfKDX70QJ-67" value="" style="edgeStyle=orthogonalEdgeStyle;rounded=0;orthogonalLoop=1;jettySize=auto;html=1;fontColor=#000000;verticalAlign=middle;" edge="1" parent="WIyWlLk6GJQsqaUBKTNV-1" source="Ygb72FsRFXbxfKDX70QJ-35" target="Ygb72FsRFXbxfKDX70QJ-66">
          <mxGeometry relative="1" as="geometry" />
        </mxCell>
        <mxCell id="Ygb72FsRFXbxfKDX70QJ-35" value="Login Success" style="shape=parallelogram;perimeter=parallelogramPerimeter;whiteSpace=wrap;html=1;fixedSize=1;fontColor=#000000;" vertex="1" parent="WIyWlLk6GJQsqaUBKTNV-1">
          <mxGeometry x="465" y="310" width="120" height="60" as="geometry" />
        </mxCell>
        <mxCell id="Ygb72FsRFXbxfKDX70QJ-56" value="" style="edgeStyle=orthogonalEdgeStyle;rounded=0;orthogonalLoop=1;jettySize=auto;html=1;fontColor=#000000;verticalAlign=middle;" edge="1" parent="WIyWlLk6GJQsqaUBKTNV-1" source="Ygb72FsRFXbxfKDX70QJ-36" target="Ygb72FsRFXbxfKDX70QJ-55">
          <mxGeometry relative="1" as="geometry" />
        </mxCell>
        <mxCell id="Ygb72FsRFXbxfKDX70QJ-74" value="" style="edgeStyle=orthogonalEdgeStyle;rounded=0;orthogonalLoop=1;jettySize=auto;html=1;fontColor=#000000;verticalAlign=middle;" edge="1" parent="WIyWlLk6GJQsqaUBKTNV-1" source="Ygb72FsRFXbxfKDX70QJ-36" target="Ygb72FsRFXbxfKDX70QJ-73">
          <mxGeometry relative="1" as="geometry" />
        </mxCell>
        <mxCell id="Ygb72FsRFXbxfKDX70QJ-88" value="" style="edgeStyle=orthogonalEdgeStyle;rounded=0;orthogonalLoop=1;jettySize=auto;html=1;fontColor=#000000;verticalAlign=middle;" edge="1" parent="WIyWlLk6GJQsqaUBKTNV-1" source="Ygb72FsRFXbxfKDX70QJ-36" target="Ygb72FsRFXbxfKDX70QJ-87">
          <mxGeometry relative="1" as="geometry" />
        </mxCell>
        <mxCell id="Ygb72FsRFXbxfKDX70QJ-36" value="1-Play&lt;br&gt;2-Highscore&lt;br&gt;3-Log out" style="rhombus;whiteSpace=wrap;html=1;" vertex="1" parent="WIyWlLk6GJQsqaUBKTNV-1">
          <mxGeometry x="470" y="470" width="110" height="100" as="geometry" />
        </mxCell>
        <mxCell id="Ygb72FsRFXbxfKDX70QJ-38" value="2" style="text;html=1;strokeColor=none;fillColor=none;align=center;verticalAlign=middle;whiteSpace=wrap;rounded=0;fontColor=#000000;" vertex="1" parent="WIyWlLk6GJQsqaUBKTNV-1">
          <mxGeometry x="210" y="260" width="40" height="20" as="geometry" />
        </mxCell>
        <mxCell id="Ygb72FsRFXbxfKDX70QJ-53" value="" style="edgeStyle=orthogonalEdgeStyle;rounded=0;orthogonalLoop=1;jettySize=auto;html=1;fontColor=#000000;verticalAlign=middle;" edge="1" parent="WIyWlLk6GJQsqaUBKTNV-1" source="Ygb72FsRFXbxfKDX70QJ-40" target="Ygb72FsRFXbxfKDX70QJ-42">
          <mxGeometry relative="1" as="geometry" />
        </mxCell>
        <mxCell id="Ygb72FsRFXbxfKDX70QJ-84" value="" style="edgeStyle=orthogonalEdgeStyle;rounded=0;orthogonalLoop=1;jettySize=auto;html=1;fontColor=#000000;verticalAlign=middle;" edge="1" parent="WIyWlLk6GJQsqaUBKTNV-1" source="Ygb72FsRFXbxfKDX70QJ-40" target="Ygb72FsRFXbxfKDX70QJ-83">
          <mxGeometry relative="1" as="geometry" />
        </mxCell>
        <mxCell id="Ygb72FsRFXbxfKDX70QJ-40" value="username&amp;nbsp;&lt;br&gt;already exist?" style="rhombus;whiteSpace=wrap;html=1;shadow=0;strokeWidth=1;spacing=6;spacingTop=-4;" vertex="1" parent="WIyWlLk6GJQsqaUBKTNV-1">
          <mxGeometry x="160" y="420" width="120" height="80" as="geometry" />
        </mxCell>
        <mxCell id="Ygb72FsRFXbxfKDX70QJ-45" value="" style="edgeStyle=orthogonalEdgeStyle;rounded=0;orthogonalLoop=1;jettySize=auto;html=1;fontColor=#000000;verticalAlign=middle;" edge="1" parent="WIyWlLk6GJQsqaUBKTNV-1" source="Ygb72FsRFXbxfKDX70QJ-42" target="Ygb72FsRFXbxfKDX70QJ-44">
          <mxGeometry relative="1" as="geometry">
            <Array as="points">
              <mxPoint x="80" y="460" />
              <mxPoint x="80" y="320" />
            </Array>
          </mxGeometry>
        </mxCell>
        <mxCell id="Ygb72FsRFXbxfKDX70QJ-42" value="" style="shape=waypoint;size=6;pointerEvents=1;points=[];fillColor=#ffffff;resizable=0;rotatable=0;perimeter=centerPerimeter;snapToPoint=1;shadow=0;strokeWidth=1;spacing=6;spacingTop=-4;" vertex="1" parent="WIyWlLk6GJQsqaUBKTNV-1">
          <mxGeometry x="60" y="440" width="40" height="40" as="geometry" />
        </mxCell>
        <mxCell id="Ygb72FsRFXbxfKDX70QJ-160" value="" style="edgeStyle=orthogonalEdgeStyle;rounded=0;orthogonalLoop=1;jettySize=auto;html=1;fontColor=#000000;verticalAlign=middle;" edge="1" parent="WIyWlLk6GJQsqaUBKTNV-1" source="Ygb72FsRFXbxfKDX70QJ-44" target="Ygb72FsRFXbxfKDX70QJ-19">
          <mxGeometry relative="1" as="geometry" />
        </mxCell>
        <mxCell id="Ygb72FsRFXbxfKDX70QJ-44" value="" style="shape=waypoint;size=6;pointerEvents=1;points=[];fillColor=#ffffff;resizable=0;rotatable=0;perimeter=centerPerimeter;snapToPoint=1;shadow=0;strokeWidth=1;spacing=6;spacingTop=-4;" vertex="1" parent="WIyWlLk6GJQsqaUBKTNV-1">
          <mxGeometry x="60" y="300" width="40" height="40" as="geometry" />
        </mxCell>
        <mxCell id="Ygb72FsRFXbxfKDX70QJ-47" value="Yes" style="text;html=1;strokeColor=none;fillColor=none;align=center;verticalAlign=middle;whiteSpace=wrap;rounded=0;fontColor=#000000;" vertex="1" parent="WIyWlLk6GJQsqaUBKTNV-1">
          <mxGeometry x="110" y="430" width="40" height="20" as="geometry" />
        </mxCell>
        <mxCell id="Ygb72FsRFXbxfKDX70QJ-49" value="Yes" style="text;html=1;strokeColor=none;fillColor=none;align=center;verticalAlign=middle;whiteSpace=wrap;rounded=0;fontColor=#000000;" vertex="1" parent="WIyWlLk6GJQsqaUBKTNV-1">
          <mxGeometry x="530" y="270" width="40" height="20" as="geometry" />
        </mxCell>
        <mxCell id="Ygb72FsRFXbxfKDX70QJ-50" value="No" style="text;html=1;strokeColor=none;fillColor=none;align=center;verticalAlign=middle;whiteSpace=wrap;rounded=0;fontColor=#000000;" vertex="1" parent="WIyWlLk6GJQsqaUBKTNV-1">
          <mxGeometry x="285" y="430" width="40" height="20" as="geometry" />
        </mxCell>
        <mxCell id="Ygb72FsRFXbxfKDX70QJ-55" value="Show Scoreboard" style="shape=parallelogram;perimeter=parallelogramPerimeter;whiteSpace=wrap;html=1;fixedSize=1;" vertex="1" parent="WIyWlLk6GJQsqaUBKTNV-1">
          <mxGeometry x="610" y="490" width="120" height="60" as="geometry" />
        </mxCell>
        <mxCell id="Ygb72FsRFXbxfKDX70QJ-57" value="2" style="text;html=1;strokeColor=none;fillColor=none;align=center;verticalAlign=middle;whiteSpace=wrap;rounded=0;fontColor=#000000;" vertex="1" parent="WIyWlLk6GJQsqaUBKTNV-1">
          <mxGeometry x="580" y="490" width="40" height="20" as="geometry" />
        </mxCell>
        <mxCell id="Ygb72FsRFXbxfKDX70QJ-72" value="" style="edgeStyle=orthogonalEdgeStyle;rounded=0;orthogonalLoop=1;jettySize=auto;html=1;fontColor=#000000;verticalAlign=middle;" edge="1" parent="WIyWlLk6GJQsqaUBKTNV-1" source="Ygb72FsRFXbxfKDX70QJ-59" target="Ygb72FsRFXbxfKDX70QJ-70">
          <mxGeometry relative="1" as="geometry" />
        </mxCell>
        <mxCell id="Ygb72FsRFXbxfKDX70QJ-59" value="Start" style="ellipse;whiteSpace=wrap;html=1;fontColor=#000000;" vertex="1" parent="WIyWlLk6GJQsqaUBKTNV-1">
          <mxGeometry x="170" y="10" width="100" height="60" as="geometry" />
        </mxCell>
        <mxCell id="Ygb72FsRFXbxfKDX70QJ-60" value="End" style="ellipse;whiteSpace=wrap;html=1;fontColor=#000000;" vertex="1" parent="WIyWlLk6GJQsqaUBKTNV-1">
          <mxGeometry x="30" y="180" width="100" height="60" as="geometry" />
        </mxCell>
        <mxCell id="Ygb72FsRFXbxfKDX70QJ-68" value="" style="edgeStyle=orthogonalEdgeStyle;rounded=0;orthogonalLoop=1;jettySize=auto;html=1;fontColor=#000000;verticalAlign=middle;" edge="1" parent="WIyWlLk6GJQsqaUBKTNV-1" source="Ygb72FsRFXbxfKDX70QJ-66" target="Ygb72FsRFXbxfKDX70QJ-36">
          <mxGeometry relative="1" as="geometry" />
        </mxCell>
        <mxCell id="Ygb72FsRFXbxfKDX70QJ-66" value="" style="ellipse;whiteSpace=wrap;html=1;aspect=fixed;fontColor=#000000;" vertex="1" parent="WIyWlLk6GJQsqaUBKTNV-1">
          <mxGeometry x="510" y="410" width="30" height="30" as="geometry" />
        </mxCell>
        <mxCell id="Ygb72FsRFXbxfKDX70QJ-71" value="" style="edgeStyle=orthogonalEdgeStyle;rounded=0;orthogonalLoop=1;jettySize=auto;html=1;fontColor=#000000;verticalAlign=middle;" edge="1" parent="WIyWlLk6GJQsqaUBKTNV-1" source="Ygb72FsRFXbxfKDX70QJ-70" target="WIyWlLk6GJQsqaUBKTNV-6">
          <mxGeometry relative="1" as="geometry" />
        </mxCell>
        <mxCell id="Ygb72FsRFXbxfKDX70QJ-70" value="" style="ellipse;whiteSpace=wrap;html=1;aspect=fixed;fontColor=#000000;" vertex="1" parent="WIyWlLk6GJQsqaUBKTNV-1">
          <mxGeometry x="205" y="105" width="30" height="30" as="geometry" />
        </mxCell>
        <mxCell id="Ygb72FsRFXbxfKDX70QJ-76" value="" style="edgeStyle=orthogonalEdgeStyle;rounded=0;orthogonalLoop=1;jettySize=auto;html=1;fontColor=#000000;verticalAlign=middle;" edge="1" parent="WIyWlLk6GJQsqaUBKTNV-1" source="Ygb72FsRFXbxfKDX70QJ-73" target="Ygb72FsRFXbxfKDX70QJ-75">
          <mxGeometry relative="1" as="geometry" />
        </mxCell>
        <mxCell id="Ygb72FsRFXbxfKDX70QJ-73" value="" style="shape=waypoint;size=6;pointerEvents=1;points=[];fillColor=#ffffff;resizable=0;rotatable=0;perimeter=centerPerimeter;snapToPoint=1;" vertex="1" parent="WIyWlLk6GJQsqaUBKTNV-1">
          <mxGeometry x="505" y="585" width="40" height="40" as="geometry" />
        </mxCell>
        <mxCell id="Ygb72FsRFXbxfKDX70QJ-80" value="" style="edgeStyle=orthogonalEdgeStyle;rounded=0;orthogonalLoop=1;jettySize=auto;html=1;fontColor=#000000;verticalAlign=middle;" edge="1" parent="WIyWlLk6GJQsqaUBKTNV-1" source="Ygb72FsRFXbxfKDX70QJ-75" target="Ygb72FsRFXbxfKDX70QJ-79">
          <mxGeometry relative="1" as="geometry" />
        </mxCell>
        <mxCell id="Ygb72FsRFXbxfKDX70QJ-75" value="" style="shape=waypoint;size=6;pointerEvents=1;points=[];fillColor=#ffffff;resizable=0;rotatable=0;perimeter=centerPerimeter;snapToPoint=1;" vertex="1" parent="WIyWlLk6GJQsqaUBKTNV-1">
          <mxGeometry x="730" y="585" width="40" height="40" as="geometry" />
        </mxCell>
        <mxCell id="Ygb72FsRFXbxfKDX70QJ-81" value="" style="edgeStyle=orthogonalEdgeStyle;rounded=0;orthogonalLoop=1;jettySize=auto;html=1;fontColor=#000000;verticalAlign=middle;" edge="1" parent="WIyWlLk6GJQsqaUBKTNV-1" source="Ygb72FsRFXbxfKDX70QJ-79">
          <mxGeometry relative="1" as="geometry">
            <mxPoint x="230" y="120" as="targetPoint" />
            <Array as="points">
              <mxPoint x="300" y="120" />
              <mxPoint x="300" y="120" />
            </Array>
          </mxGeometry>
        </mxCell>
        <mxCell id="Ygb72FsRFXbxfKDX70QJ-79" value="" style="shape=waypoint;size=6;pointerEvents=1;points=[];fillColor=#ffffff;resizable=0;rotatable=0;perimeter=centerPerimeter;snapToPoint=1;" vertex="1" parent="WIyWlLk6GJQsqaUBKTNV-1">
          <mxGeometry x="730" y="100" width="40" height="40" as="geometry" />
        </mxCell>
        <mxCell id="Ygb72FsRFXbxfKDX70QJ-85" value="" style="edgeStyle=orthogonalEdgeStyle;rounded=0;orthogonalLoop=1;jettySize=auto;html=1;fontColor=#000000;verticalAlign=middle;" edge="1" parent="WIyWlLk6GJQsqaUBKTNV-1" source="Ygb72FsRFXbxfKDX70QJ-83" target="Ygb72FsRFXbxfKDX70QJ-66">
          <mxGeometry relative="1" as="geometry" />
        </mxCell>
        <mxCell id="Ygb72FsRFXbxfKDX70QJ-83" value="Registration Done" style="shape=parallelogram;perimeter=parallelogramPerimeter;whiteSpace=wrap;html=1;fixedSize=1;fontColor=#000000;" vertex="1" parent="WIyWlLk6GJQsqaUBKTNV-1">
          <mxGeometry x="340" y="430" width="120" height="60" as="geometry" />
        </mxCell>
        <mxCell id="Ygb72FsRFXbxfKDX70QJ-94" value="" style="edgeStyle=orthogonalEdgeStyle;rounded=0;orthogonalLoop=1;jettySize=auto;html=1;fontColor=#000000;verticalAlign=middle;" edge="1" parent="WIyWlLk6GJQsqaUBKTNV-1" source="Ygb72FsRFXbxfKDX70QJ-87" target="Ygb72FsRFXbxfKDX70QJ-93">
          <mxGeometry relative="1" as="geometry" />
        </mxCell>
        <mxCell id="Ygb72FsRFXbxfKDX70QJ-96" value="" style="edgeStyle=orthogonalEdgeStyle;rounded=0;orthogonalLoop=1;jettySize=auto;html=1;fontColor=#000000;verticalAlign=middle;" edge="1" parent="WIyWlLk6GJQsqaUBKTNV-1" source="Ygb72FsRFXbxfKDX70QJ-87" target="Ygb72FsRFXbxfKDX70QJ-91">
          <mxGeometry relative="1" as="geometry" />
        </mxCell>
        <mxCell id="Ygb72FsRFXbxfKDX70QJ-98" value="" style="edgeStyle=orthogonalEdgeStyle;rounded=0;orthogonalLoop=1;jettySize=auto;html=1;fontColor=#000000;verticalAlign=middle;" edge="1" parent="WIyWlLk6GJQsqaUBKTNV-1" source="Ygb72FsRFXbxfKDX70QJ-87" target="Ygb72FsRFXbxfKDX70QJ-97">
          <mxGeometry relative="1" as="geometry" />
        </mxCell>
        <mxCell id="Ygb72FsRFXbxfKDX70QJ-87" value="1-Easy&lt;br&gt;2-Medium&lt;br&gt;3-Hard" style="rhombus;whiteSpace=wrap;html=1;fontColor=#000000;direction=south;rotation=0;" vertex="1" parent="WIyWlLk6GJQsqaUBKTNV-1">
          <mxGeometry x="300" y="625" width="125" height="120" as="geometry" />
        </mxCell>
        <mxCell id="Ygb72FsRFXbxfKDX70QJ-117" value="" style="edgeStyle=orthogonalEdgeStyle;rounded=0;orthogonalLoop=1;jettySize=auto;html=1;fontColor=#000000;verticalAlign=middle;entryX=0;entryY=0.5;entryDx=0;entryDy=0;" edge="1" parent="WIyWlLk6GJQsqaUBKTNV-1" source="Ygb72FsRFXbxfKDX70QJ-90" target="Ygb72FsRFXbxfKDX70QJ-111">
          <mxGeometry relative="1" as="geometry">
            <mxPoint x="160" y="920" as="targetPoint" />
            <Array as="points">
              <mxPoint x="160" y="915" />
            </Array>
          </mxGeometry>
        </mxCell>
        <mxCell id="Ygb72FsRFXbxfKDX70QJ-90" value="Board of 9x9" style="shape=parallelogram;perimeter=parallelogramPerimeter;whiteSpace=wrap;html=1;fixedSize=1;fontColor=#000000;" vertex="1" parent="WIyWlLk6GJQsqaUBKTNV-1">
          <mxGeometry x="100" y="810" width="120" height="60" as="geometry" />
        </mxCell>
        <mxCell id="Ygb72FsRFXbxfKDX70QJ-112" value="" style="edgeStyle=orthogonalEdgeStyle;rounded=0;orthogonalLoop=1;jettySize=auto;html=1;fontColor=#000000;verticalAlign=middle;" edge="1" parent="WIyWlLk6GJQsqaUBKTNV-1" source="Ygb72FsRFXbxfKDX70QJ-91" target="Ygb72FsRFXbxfKDX70QJ-111">
          <mxGeometry relative="1" as="geometry" />
        </mxCell>
        <mxCell id="Ygb72FsRFXbxfKDX70QJ-91" value="Board of 13x13" style="shape=parallelogram;perimeter=parallelogramPerimeter;whiteSpace=wrap;html=1;fixedSize=1;fontColor=#000000;" vertex="1" parent="WIyWlLk6GJQsqaUBKTNV-1">
          <mxGeometry x="302.5" y="810" width="120" height="60" as="geometry" />
        </mxCell>
        <mxCell id="Ygb72FsRFXbxfKDX70QJ-120" value="" style="edgeStyle=orthogonalEdgeStyle;rounded=0;orthogonalLoop=1;jettySize=auto;html=1;fontColor=#000000;verticalAlign=middle;" edge="1" parent="WIyWlLk6GJQsqaUBKTNV-1" source="Ygb72FsRFXbxfKDX70QJ-92" target="Ygb72FsRFXbxfKDX70QJ-119">
          <mxGeometry relative="1" as="geometry" />
        </mxCell>
        <mxCell id="Ygb72FsRFXbxfKDX70QJ-92" value="Board of 17x17" style="shape=parallelogram;perimeter=parallelogramPerimeter;whiteSpace=wrap;html=1;fixedSize=1;fontColor=#000000;" vertex="1" parent="WIyWlLk6GJQsqaUBKTNV-1">
          <mxGeometry x="507.5" y="810" width="120" height="60" as="geometry" />
        </mxCell>
        <mxCell id="Ygb72FsRFXbxfKDX70QJ-95" value="" style="edgeStyle=orthogonalEdgeStyle;rounded=0;orthogonalLoop=1;jettySize=auto;html=1;fontColor=#000000;verticalAlign=middle;" edge="1" parent="WIyWlLk6GJQsqaUBKTNV-1" source="Ygb72FsRFXbxfKDX70QJ-93" target="Ygb72FsRFXbxfKDX70QJ-90">
          <mxGeometry relative="1" as="geometry">
            <Array as="points">
              <mxPoint x="160" y="685" />
            </Array>
          </mxGeometry>
        </mxCell>
        <mxCell id="Ygb72FsRFXbxfKDX70QJ-93" value="" style="shape=waypoint;size=6;pointerEvents=1;points=[];fillColor=#ffffff;resizable=0;rotatable=0;perimeter=centerPerimeter;snapToPoint=1;" vertex="1" parent="WIyWlLk6GJQsqaUBKTNV-1">
          <mxGeometry x="137.5" y="665" width="40" height="40" as="geometry" />
        </mxCell>
        <mxCell id="Ygb72FsRFXbxfKDX70QJ-99" value="" style="edgeStyle=orthogonalEdgeStyle;rounded=0;orthogonalLoop=1;jettySize=auto;html=1;fontColor=#000000;verticalAlign=middle;" edge="1" parent="WIyWlLk6GJQsqaUBKTNV-1" source="Ygb72FsRFXbxfKDX70QJ-97" target="Ygb72FsRFXbxfKDX70QJ-92">
          <mxGeometry relative="1" as="geometry" />
        </mxCell>
        <mxCell id="Ygb72FsRFXbxfKDX70QJ-97" value="" style="shape=waypoint;size=6;pointerEvents=1;points=[];fillColor=#ffffff;resizable=0;rotatable=0;perimeter=centerPerimeter;snapToPoint=1;" vertex="1" parent="WIyWlLk6GJQsqaUBKTNV-1">
          <mxGeometry x="547.5" y="665" width="40" height="40" as="geometry" />
        </mxCell>
        <mxCell id="Ygb72FsRFXbxfKDX70QJ-100" value="1" style="text;html=1;strokeColor=none;fillColor=none;align=center;verticalAlign=middle;whiteSpace=wrap;rounded=0;fontColor=#000000;" vertex="1" parent="WIyWlLk6GJQsqaUBKTNV-1">
          <mxGeometry x="210" y="660" width="40" height="20" as="geometry" />
        </mxCell>
        <mxCell id="Ygb72FsRFXbxfKDX70QJ-101" value="2" style="text;html=1;strokeColor=none;fillColor=none;align=center;verticalAlign=middle;whiteSpace=wrap;rounded=0;fontColor=#000000;" vertex="1" parent="WIyWlLk6GJQsqaUBKTNV-1">
          <mxGeometry x="320" y="760" width="40" height="20" as="geometry" />
        </mxCell>
        <mxCell id="Ygb72FsRFXbxfKDX70QJ-102" value="3" style="text;html=1;strokeColor=none;fillColor=none;align=center;verticalAlign=middle;whiteSpace=wrap;rounded=0;fontColor=#000000;" vertex="1" parent="WIyWlLk6GJQsqaUBKTNV-1">
          <mxGeometry x="450" y="660" width="40" height="20" as="geometry" />
        </mxCell>
        <mxCell id="Ygb72FsRFXbxfKDX70QJ-129" value="" style="edgeStyle=orthogonalEdgeStyle;rounded=0;orthogonalLoop=1;jettySize=auto;html=1;fontColor=#000000;verticalAlign=middle;" edge="1" parent="WIyWlLk6GJQsqaUBKTNV-1" source="Ygb72FsRFXbxfKDX70QJ-103" target="Ygb72FsRFXbxfKDX70QJ-104">
          <mxGeometry relative="1" as="geometry" />
        </mxCell>
        <mxCell id="Ygb72FsRFXbxfKDX70QJ-103" value="Generate random traps" style="rounded=0;whiteSpace=wrap;html=1;fontColor=#000000;" vertex="1" parent="WIyWlLk6GJQsqaUBKTNV-1">
          <mxGeometry x="302.5" y="960" width="120" height="60" as="geometry" />
        </mxCell>
        <mxCell id="Ygb72FsRFXbxfKDX70QJ-131" value="" style="edgeStyle=orthogonalEdgeStyle;rounded=0;orthogonalLoop=1;jettySize=auto;html=1;fontColor=#000000;verticalAlign=middle;" edge="1" parent="WIyWlLk6GJQsqaUBKTNV-1" source="Ygb72FsRFXbxfKDX70QJ-104" target="Ygb72FsRFXbxfKDX70QJ-130">
          <mxGeometry relative="1" as="geometry" />
        </mxCell>
        <mxCell id="Ygb72FsRFXbxfKDX70QJ-104" value="Pop quizes" style="rounded=0;whiteSpace=wrap;html=1;fontColor=#000000;" vertex="1" parent="WIyWlLk6GJQsqaUBKTNV-1">
          <mxGeometry x="302.5" y="1060" width="120" height="60" as="geometry" />
        </mxCell>
        <mxCell id="Ygb72FsRFXbxfKDX70QJ-128" value="" style="edgeStyle=orthogonalEdgeStyle;rounded=0;orthogonalLoop=1;jettySize=auto;html=1;fontColor=#000000;verticalAlign=middle;" edge="1" parent="WIyWlLk6GJQsqaUBKTNV-1" source="Ygb72FsRFXbxfKDX70QJ-111" target="Ygb72FsRFXbxfKDX70QJ-103">
          <mxGeometry relative="1" as="geometry" />
        </mxCell>
        <mxCell id="Ygb72FsRFXbxfKDX70QJ-111" value="" style="ellipse;whiteSpace=wrap;html=1;aspect=fixed;fontColor=#000000;" vertex="1" parent="WIyWlLk6GJQsqaUBKTNV-1">
          <mxGeometry x="347.5" y="900" width="30" height="30" as="geometry" />
        </mxCell>
        <mxCell id="Ygb72FsRFXbxfKDX70QJ-123" value="" style="edgeStyle=orthogonalEdgeStyle;rounded=0;orthogonalLoop=1;jettySize=auto;html=1;fontColor=#000000;verticalAlign=middle;" edge="1" parent="WIyWlLk6GJQsqaUBKTNV-1" source="Ygb72FsRFXbxfKDX70QJ-119" target="Ygb72FsRFXbxfKDX70QJ-111">
          <mxGeometry relative="1" as="geometry" />
        </mxCell>
        <mxCell id="Ygb72FsRFXbxfKDX70QJ-119" value="" style="shape=waypoint;size=6;pointerEvents=1;points=[];fillColor=#ffffff;resizable=0;rotatable=0;perimeter=centerPerimeter;snapToPoint=1;" vertex="1" parent="WIyWlLk6GJQsqaUBKTNV-1">
          <mxGeometry x="547.5" y="895" width="40" height="40" as="geometry" />
        </mxCell>
        <mxCell id="Ygb72FsRFXbxfKDX70QJ-144" value="" style="edgeStyle=orthogonalEdgeStyle;rounded=0;orthogonalLoop=1;jettySize=auto;html=1;fontColor=#000000;verticalAlign=middle;" edge="1" parent="WIyWlLk6GJQsqaUBKTNV-1" source="Ygb72FsRFXbxfKDX70QJ-127" target="Ygb72FsRFXbxfKDX70QJ-143">
          <mxGeometry relative="1" as="geometry" />
        </mxCell>
        <mxCell id="Ygb72FsRFXbxfKDX70QJ-147" value="" style="edgeStyle=orthogonalEdgeStyle;rounded=0;orthogonalLoop=1;jettySize=auto;html=1;fontColor=#000000;verticalAlign=middle;entryX=0.428;entryY=0.642;entryDx=0;entryDy=0;entryPerimeter=0;" edge="1" parent="WIyWlLk6GJQsqaUBKTNV-1" source="Ygb72FsRFXbxfKDX70QJ-127" target="Ygb72FsRFXbxfKDX70QJ-150">
          <mxGeometry relative="1" as="geometry">
            <mxPoint x="780" y="995" as="targetPoint" />
          </mxGeometry>
        </mxCell>
        <mxCell id="Ygb72FsRFXbxfKDX70QJ-127" value="End of the Board reached?" style="rhombus;whiteSpace=wrap;html=1;fontColor=#000000;" vertex="1" parent="WIyWlLk6GJQsqaUBKTNV-1">
          <mxGeometry x="520" y="950" width="137.5" height="90" as="geometry" />
        </mxCell>
        <mxCell id="Ygb72FsRFXbxfKDX70QJ-133" value="" style="edgeStyle=orthogonalEdgeStyle;rounded=0;orthogonalLoop=1;jettySize=auto;html=1;fontColor=#000000;verticalAlign=middle;" edge="1" parent="WIyWlLk6GJQsqaUBKTNV-1" source="Ygb72FsRFXbxfKDX70QJ-130" target="Ygb72FsRFXbxfKDX70QJ-132">
          <mxGeometry relative="1" as="geometry" />
        </mxCell>
        <mxCell id="Ygb72FsRFXbxfKDX70QJ-130" value="" style="shape=waypoint;size=6;pointerEvents=1;points=[];fillColor=#ffffff;resizable=0;rotatable=0;perimeter=centerPerimeter;snapToPoint=1;rounded=0;" vertex="1" parent="WIyWlLk6GJQsqaUBKTNV-1">
          <mxGeometry x="430" y="1070" width="40" height="40" as="geometry" />
        </mxCell>
        <mxCell id="Ygb72FsRFXbxfKDX70QJ-140" value="" style="edgeStyle=orthogonalEdgeStyle;rounded=0;orthogonalLoop=1;jettySize=auto;html=1;fontColor=#000000;verticalAlign=middle;" edge="1" parent="WIyWlLk6GJQsqaUBKTNV-1" source="Ygb72FsRFXbxfKDX70QJ-132" target="Ygb72FsRFXbxfKDX70QJ-139">
          <mxGeometry relative="1" as="geometry">
            <Array as="points">
              <mxPoint x="480" y="930" />
              <mxPoint x="589" y="930" />
            </Array>
          </mxGeometry>
        </mxCell>
        <mxCell id="Ygb72FsRFXbxfKDX70QJ-132" value="" style="shape=waypoint;size=6;pointerEvents=1;points=[];fillColor=#ffffff;resizable=0;rotatable=0;perimeter=centerPerimeter;snapToPoint=1;rounded=0;" vertex="1" parent="WIyWlLk6GJQsqaUBKTNV-1">
          <mxGeometry x="430" y="910" width="40" height="40" as="geometry" />
        </mxCell>
        <mxCell id="Ygb72FsRFXbxfKDX70QJ-139" value="" style="shape=waypoint;size=6;pointerEvents=1;points=[];fillColor=#ffffff;resizable=0;rotatable=0;perimeter=centerPerimeter;snapToPoint=1;rounded=0;" vertex="1" parent="WIyWlLk6GJQsqaUBKTNV-1">
          <mxGeometry x="568.75" y="930" width="40" height="40" as="geometry" />
        </mxCell>
        <mxCell id="Ygb72FsRFXbxfKDX70QJ-143" value="Move player to&lt;br&gt;new position" style="rounded=0;whiteSpace=wrap;html=1;fontColor=#000000;" vertex="1" parent="WIyWlLk6GJQsqaUBKTNV-1">
          <mxGeometry x="528.75" y="1080" width="120" height="60" as="geometry" />
        </mxCell>
        <mxCell id="Ygb72FsRFXbxfKDX70QJ-145" value="" style="endArrow=classic;html=1;fontColor=#000000;verticalAlign=middle;exitX=0;exitY=0.5;exitDx=0;exitDy=0;entryX=0;entryY=0.5;entryDx=0;entryDy=0;" edge="1" parent="WIyWlLk6GJQsqaUBKTNV-1" source="Ygb72FsRFXbxfKDX70QJ-143" target="Ygb72FsRFXbxfKDX70QJ-127">
          <mxGeometry width="50" height="50" relative="1" as="geometry">
            <mxPoint x="380" y="960" as="sourcePoint" />
            <mxPoint x="430" y="910" as="targetPoint" />
            <Array as="points">
              <mxPoint x="480" y="1110" />
              <mxPoint x="480" y="995" />
            </Array>
          </mxGeometry>
        </mxCell>
        <mxCell id="Ygb72FsRFXbxfKDX70QJ-152" value="" style="edgeStyle=orthogonalEdgeStyle;rounded=0;orthogonalLoop=1;jettySize=auto;html=1;fontColor=#000000;verticalAlign=middle;" edge="1" parent="WIyWlLk6GJQsqaUBKTNV-1" source="Ygb72FsRFXbxfKDX70QJ-150" target="Ygb72FsRFXbxfKDX70QJ-66">
          <mxGeometry relative="1" as="geometry">
            <Array as="points">
              <mxPoint x="790" y="425" />
            </Array>
          </mxGeometry>
        </mxCell>
        <mxCell id="Ygb72FsRFXbxfKDX70QJ-150" value="" style="shape=waypoint;size=6;pointerEvents=1;points=[];fillColor=#ffffff;resizable=0;rotatable=0;perimeter=centerPerimeter;snapToPoint=1;" vertex="1" parent="WIyWlLk6GJQsqaUBKTNV-1">
          <mxGeometry x="770" y="975" width="40" height="40" as="geometry" />
        </mxCell>
        <mxCell id="Ygb72FsRFXbxfKDX70QJ-157" value="Yes" style="text;html=1;strokeColor=none;fillColor=none;align=center;verticalAlign=middle;whiteSpace=wrap;rounded=0;fontColor=#000000;" vertex="1" parent="WIyWlLk6GJQsqaUBKTNV-1">
          <mxGeometry x="670" y="970" width="40" height="20" as="geometry" />
        </mxCell>
        <mxCell id="Ygb72FsRFXbxfKDX70QJ-158" value="No" style="text;html=1;strokeColor=none;fillColor=none;align=center;verticalAlign=middle;whiteSpace=wrap;rounded=0;fontColor=#000000;" vertex="1" parent="WIyWlLk6GJQsqaUBKTNV-1">
          <mxGeometry x="545" y="1050" width="40" height="20" as="geometry" />
        </mxCell>
      </root>
    </mxGraphModel>
  </diagram>
</mxfile>
